<svg height="512" viewBox="0 0 128 128" width="512" xmlns="http://www.w3.org/2000/svg" fill="#373435"><g id="Layer_2" data-name="Layer 2"><path d="m127.315 28.361a1.753 1.753 0 0 0 -1.519-.3l-10.411 2.794a198.482 198.482 0 0 1 -102.772 0l-10.413-2.795a1.75 1.75 0 0 0 -2.2 1.69v68.5a1.769 1.769 0 0 0 2.2 1.69l10.411-2.794a198.482 198.482 0 0 1 102.772 0l10.417 2.794a1.769 1.769 0 0 0 2.2-1.69v-68.5a1.75 1.75 0 0 0 -.685-1.389zm-2.815 56.9-40.769-13.108 13.984-6.253 26.785 10.382zm-112.794-51.028a201.978 201.978 0 0 0 104.587 0l8.207-2.2v40.5l-26.2-10.165a1.751 1.751 0 0 0 -1.348.035l-18.206 8.147-30.21-9.716a1.75 1.75 0 0 0 -1.166.033l-43.87 16.916v-45.751zm104.588 59.534a202 202 0 0 0 -104.587 0l-8.207 2.201v-14.434l44.553-17.179 76.447 24.587v7.026z"/><path d="m37.673 24.764a1.836 1.836 0 0 0 .08.443l1.4 4.274a1.75 1.75 0 0 0 3.328-1.086l-.555-1.7a201.816 201.816 0 0 0 22.074 1.233 201.816 201.816 0 0 0 22.079-1.234l-.555 1.7a1.75 1.75 0 1 0 3.328 1.086l1.4-4.274a1.8 1.8 0 0 0 -.413-1.767l-3.708-3.788a1.75 1.75 0 0 0 -2.5 2.448l1.187 1.212a198.4 198.4 0 0 1 -41.621 0l1.179-1.211a1.75 1.75 0 0 0 -2.5-2.448l-3.708 3.788a1.785 1.785 0 0 0 -.495 1.324z"/><path d="m90.327 103.236a1.835 1.835 0 0 0 -.08-.442l-1.4-4.274a1.75 1.75 0 0 0 -3.328 1.086l.555 1.7a201.894 201.894 0 0 0 -44.157 0l.555-1.7a1.75 1.75 0 0 0 -3.328-1.086l-1.4 4.274a1.8 1.8 0 0 0 .413 1.767l3.708 3.788a1.75 1.75 0 0 0 2.5-2.448l-1.187-1.212a198.4 198.4 0 0 1 41.621 0l-1.175 1.211a1.75 1.75 0 0 0 2.5 2.448l3.708-3.788a1.78 1.78 0 0 0 .495-1.324z"/><path d="m74.75 62.625a7.375 7.375 0 1 0 -7.375-7.375 7.384 7.384 0 0 0 7.375 7.375zm0-11.25a3.875 3.875 0 1 1 -3.875 3.875 3.879 3.879 0 0 1 3.875-3.875z"/></g></svg>